<ttFont>
<head>
    <!-- Most of this table will be recalculated by the compiler -->
    <tableVersion value="1.0"/>
    <fontRevision value="0.1"/>
    <checkSumAdjustment value="0x114b6a13"/>
    <magicNumber value="0x5f0f3cf5"/>
    <flags value="00000000 00000011"/>
    <unitsPerEm value="1024"/>
    <created value="Thu Feb 27 05:56:56 2025"/>
    <modified value="Thu Feb 27 07:47:11 2025"/>
    <xMin value="-3"/>
    <yMin value="-108"/>
    <xMax value="515"/>
    <yMax value="903"/>
    <macStyle value="00000000 00000000"/>
    <lowestRecPPEM value="6"/>
    <fontDirectionHint value="2"/>
    <indexToLocFormat value="0"/>
    <glyphDataFormat value="0"/>
  </head>
    <TTGlyph name=".notdef" xMin="0" yMin="-108" xMax="515" yMax="885">
      <component glyphName="space" x="3" y="-18" flags="0x4"/>
      <component glyphName="component0" x="11" y="-2" flags="0x4"/>
      <component glyphName="component0" x="10" y="379" flags="0x4"/>
      <component glyphName="component0" x="216" y="2" flags="0x4"/>
      <component glyphName="component0" x="216" y="392" flags="0x4"/>
      <component glyphName="component0" x="420" y="-5" flags="0x4"/>
      <component glyphName="component0" x="419" y="386" flags="0x4"/>
      <component glyphName="component0" x="456" y="-40" scalex="0.0" scale01="1.0" scale10="-0.5" scaley="0.0" flags="0x4"/>
      <component glyphName="component0" x="453" y="745" scalex="0.0" scale01="1.0" scale10="-0.5" scaley="0.0" flags="0x4"/>
      <component glyphName="component0" x="249" y="350" scalex="0.0" scale01="1.0" scale10="-0.5" scaley="0.0" flags="0x4"/>
      <component glyphName="component0" x="450" y="350" scalex="0.0" scale01="1.0" scale10="-0.45" scaley="0.0" flags="0x4"/>
      <component glyphName="component0" x="397" y="8" scalex="0.6857" scale01="0.4881" scale10="-0.3401" scaley="0.85333" flags="0x4"/>
      <component glyphName="component0" x="253" y="-41" scalex="0.0" scale01="1.0" scale10="-0.5" scaley="0.0" flags="0x4"/>
      <component glyphName="component0" x="257" y="745" scalex="0.0" scale01="1.0" scale10="-0.5" scaley="0.0" flags="0x4"/>
      <component glyphName="component0" x="265" y="449" scalex="0.5952" scale01="-0.88226" scale10="0.3568" scaley="0.8756" flags="0x4"/>
      <component glyphName="component0" x="90" y="48" scalex="0.64343" scale01="-0.70905" scale10="0.2578" scaley="0.84247" flags="0x4"/>
      <component glyphName="component0" x="194" y="404" scalex="0.68207" scale01="0.4974" scale10="-0.33826" scaley="0.86957" flags="0x4"/>
    </TTGlyph>
    <TTGlyph name="A" xMin="0" yMin="-98" xMax="515" yMax="895">
      <component glyphName="space" x="3" y="-8" flags="0x4"/>
      <component glyphName="component0" x="11" y="-2" flags="0x4"/>
      <component glyphName="component0" x="10" y="389" flags="0x4"/>
      <component glyphName="component0" x="420" y="-5" flags="0x4"/>
      <component glyphName="component0" x="419" y="396" flags="0x4"/>
      <component glyphName="component0" x="453" y="755" scalex="0.0" scale01="1.0" scale10="-0.5" scaley="0.0" flags="0x4"/>
      <component glyphName="component0" x="249" y="350" scalex="0.0" scale01="1.0" scale10="-0.5" scaley="0.0" flags="0x4"/>
      <component glyphName="component0" x="450" y="350" scalex="0.0" scale01="1.0" scale10="-0.45" scaley="0.0" flags="0x4"/>
      <component glyphName="component0" x="257" y="755" scalex="0.0" scale01="1.0" scale10="-0.5" scaley="0.0" flags="0x4"/>
    </TTGlyph>
    <TTGlyph name="A.0" xMin="-3" yMin="-90" xMax="512" yMax="903">
      <component glyphName="space" x="0" y="0" flags="0x204"/>
    </TTGlyph>
    <TTGlyph name="A.1" xMin="0" yMin="-98" xMax="515" yMax="895">
      <component glyphName="A" x="0" y="0" flags="0x204"/>
    </TTGlyph>
    <TTGlyph name="B" xMin="0" yMin="-98" xMax="515" yMax="895">
      <component glyphName="space" x="3" y="-8" flags="0x4"/>
      <component glyphName="component0" x="11" y="-2" flags="0x4"/>
      <component glyphName="component0" x="10" y="389" flags="0x4"/>
      <component glyphName="component0" x="456" y="-40" scalex="0.0" scale01="1.0" scale10="-0.5" scaley="0.0" flags="0x4"/>
      <component glyphName="component0" x="453" y="755" scalex="0.0" scale01="1.0" scale10="-0.5" scaley="0.0" flags="0x4"/>
      <component glyphName="component0" x="249" y="350" scalex="0.0" scale01="1.0" scale10="-0.5" scaley="0.0" flags="0x4"/>
      <component glyphName="component0" x="386" y="5" scalex="0.93726" scale01="0.5447" scale10="-0.4649" scaley="0.95233" flags="0x4"/>
      <component glyphName="component0" x="253" y="-41" scalex="0.0" scale01="1.0" scale10="-0.5" scaley="0.0" flags="0x4"/>
      <component glyphName="component0" x="257" y="755" scalex="0.0" scale01="1.0" scale10="-0.5" scaley="0.0" flags="0x4"/>
      <component glyphName="component0" x="220" y="434" scalex="0.75885" scale01="-0.9271" scale10="0.4549" scaley="0.92017" flags="0x4"/>
    </TTGlyph>
    <TTGlyph name="B.0" xMin="-3" yMin="-90" xMax="512" yMax="903">
      <component glyphName="space" x="0" y="0" flags="0x204"/>
    </TTGlyph>
    <TTGlyph name="B.1" xMin="0" yMin="-98" xMax="515" yMax="895">
      <component glyphName="B" x="0" y="0" flags="0x204"/>
    </TTGlyph>
    <TTGlyph name="C" xMin="0" yMin="-98" xMax="515" yMax="895">
      <component glyphName="space" x="3" y="-8" flags="0x4"/>
      <component glyphName="component0" x="11" y="-2" flags="0x4"/>
      <component glyphName="component0" x="10" y="389" flags="0x4"/>
      <component glyphName="component0" x="456" y="-40" scalex="0.0" scale01="1.0" scale10="-0.5" scaley="0.0" flags="0x4"/>
      <component glyphName="component0" x="453" y="755" scalex="0.0" scale01="1.0" scale10="-0.5" scaley="0.0" flags="0x4"/>
      <component glyphName="component0" x="253" y="-41" scalex="0.0" scale01="1.0" scale10="-0.5" scaley="0.0" flags="0x4"/>
      <component glyphName="component0" x="257" y="755" scalex="0.0" scale01="1.0" scale10="-0.5" scaley="0.0" flags="0x4"/>
    </TTGlyph>
    <TTGlyph name="C.0" xMin="-3" yMin="-90" xMax="512" yMax="903">
      <component glyphName="space" x="0" y="0" flags="0x204"/>
    </TTGlyph>
    <TTGlyph name="C.1" xMin="0" yMin="-98" xMax="515" yMax="895">
      <component glyphName="C" x="0" y="0" flags="0x204"/>
    </TTGlyph>
    <TTGlyph name="D" xMin="-3" yMin="-90" xMax="512" yMax="903">
      <component glyphName="component0" x="11" y="-2" flags="0x4"/>
      <component glyphName="component0" x="10" y="389" flags="0x4"/>
      <component glyphName="component0" x="84" y="52" scalex="0.86456" scale01="-0.796" scale10="0.3464" scaley="0.9458" flags="0x4"/>
      <component glyphName="component0" x="218" y="370" scalex="0.83374" scale01="0.5446" scale10="-0.4135" scaley="0.9522" flags="0x4"/>
      <component glyphName="space" x="0" y="0" flags="0x204"/>
    </TTGlyph>
    <TTGlyph name="D.0" xMin="-3" yMin="-90" xMax="512" yMax="903">
      <component glyphName="space" x="0" y="0" flags="0x204"/>
    </TTGlyph>
    <TTGlyph name="D.1" xMin="-3" yMin="-90" xMax="512" yMax="903">
      <component glyphName="D" x="0" y="0" flags="0x204"/>
    </TTGlyph>
    <TTGlyph name="E" xMin="0" yMin="-98" xMax="515" yMax="895">
      <component glyphName="space" x="3" y="-8" flags="0x4"/>
      <component glyphName="component0" x="11" y="-2" flags="0x4"/>
      <component glyphName="component0" x="10" y="389" flags="0x4"/>
      <component glyphName="component0" x="456" y="-40" scalex="0.0" scale01="1.0" scale10="-0.5" scaley="0.0" flags="0x4"/>
      <component glyphName="component0" x="453" y="755" scalex="0.0" scale01="1.0" scale10="-0.5" scaley="0.0" flags="0x4"/>
      <component glyphName="component0" x="249" y="350" scalex="0.0" scale01="1.0" scale10="-0.5" scaley="0.0" flags="0x4"/>
      <component glyphName="component0" x="450" y="350" scalex="0.0" scale01="1.0" scale10="-0.45" scaley="0.0" flags="0x4"/>
      <component glyphName="component0" x="253" y="-41" scalex="0.0" scale01="1.0" scale10="-0.5" scaley="0.0" flags="0x4"/>
      <component glyphName="component0" x="257" y="755" scalex="0.0" scale01="1.0" scale10="-0.5" scaley="0.0" flags="0x4"/>
    </TTGlyph>
    <TTGlyph name="E.0" xMin="-3" yMin="-90" xMax="512" yMax="903">
      <component glyphName="space" x="0" y="0" flags="0x204"/>
    </TTGlyph>
    <TTGlyph name="E.1" xMin="0" yMin="-98" xMax="515" yMax="895">
      <component glyphName="E" x="0" y="0" flags="0x204"/>
    </TTGlyph>
    <TTGlyph name="F" xMin="0" yMin="-98" xMax="515" yMax="895">
      <component glyphName="space" x="3" y="-8" flags="0x4"/>
      <component glyphName="component0" x="11" y="-2" flags="0x4"/>
      <component glyphName="component0" x="10" y="389" flags="0x4"/>
      <component glyphName="component0" x="453" y="755" scalex="0.0" scale01="1.0" scale10="-0.5" scaley="0.0" flags="0x4"/>
      <component glyphName="component0" x="249" y="350" scalex="0.0" scale01="1.0" scale10="-0.5" scaley="0.0" flags="0x4"/>
      <component glyphName="component0" x="450" y="350" scalex="0.0" scale01="1.0" scale10="-0.45" scaley="0.0" flags="0x4"/>
      <component glyphName="component0" x="257" y="755" scalex="0.0" scale01="1.0" scale10="-0.5" scaley="0.0" flags="0x4"/>
    </TTGlyph>
    <TTGlyph name="F.0" xMin="-3" yMin="-90" xMax="512" yMax="903">
      <component glyphName="space" x="0" y="0" flags="0x204"/>
    </TTGlyph>
    <TTGlyph name="F.1" xMin="0" yMin="-98" xMax="515" yMax="895">
      <component glyphName="F" x="0" y="0" flags="0x204"/>
    </TTGlyph>
    <TTGlyph name="G" xMin="0" yMin="-98" xMax="515" yMax="895">
      <component glyphName="space" x="3" y="-8" flags="0x4"/>
      <component glyphName="component0" x="11" y="-2" flags="0x4"/>
      <component glyphName="component0" x="10" y="389" flags="0x4"/>
      <component glyphName="component0" x="420" y="-5" flags="0x4"/>
      <component glyphName="component0" x="456" y="-40" scalex="0.0" scale01="1.0" scale10="-0.5" scaley="0.0" flags="0x4"/>
      <component glyphName="component0" x="453" y="755" scalex="0.0" scale01="1.0" scale10="-0.5" scaley="0.0" flags="0x4"/>
      <component glyphName="component0" x="450" y="350" scalex="0.0" scale01="1.0" scale10="-0.45" scaley="0.0" flags="0x4"/>
      <component glyphName="component0" x="253" y="-41" scalex="0.0" scale01="1.0" scale10="-0.5" scaley="0.0" flags="0x4"/>
      <component glyphName="component0" x="257" y="755" scalex="0.0" scale01="1.0" scale10="-0.5" scaley="0.0" flags="0x4"/>
    </TTGlyph>
    <TTGlyph name="G.0" xMin="-3" yMin="-90" xMax="512" yMax="903">
      <component glyphName="space" x="0" y="0" flags="0x204"/>
    </TTGlyph>
    <TTGlyph name="G.1" xMin="0" yMin="-98" xMax="515" yMax="895">
      <component glyphName="G" x="0" y="0" flags="0x204"/>
    </TTGlyph>
    <TTGlyph name="H" xMin="-3" yMin="-90" xMax="512" yMax="903">
      <component glyphName="component0" x="11" y="-2" flags="0x4"/>
      <component glyphName="component0" x="10" y="389" flags="0x4"/>
      <component glyphName="component0" x="420" y="-5" flags="0x4"/>
      <component glyphName="component0" x="419" y="396" flags="0x4"/>
      <component glyphName="component0" x="249" y="350" scalex="0.0" scale01="1.0" scale10="-0.5" scaley="0.0" flags="0x4"/>
      <component glyphName="component0" x="450" y="350" scalex="0.0" scale01="1.0" scale10="-0.45" scaley="0.0" flags="0x4"/>
      <component glyphName="space" x="0" y="0" flags="0x204"/>
    </TTGlyph>
    <TTGlyph name="H.0" xMin="-3" yMin="-90" xMax="512" yMax="903">
      <component glyphName="space" x="0" y="0" flags="0x204"/>
    </TTGlyph>
    <TTGlyph name="H.1" xMin="-3" yMin="-90" xMax="512" yMax="903">
      <component glyphName="H" x="0" y="0" flags="0x204"/>
    </TTGlyph>
    <TTGlyph name="I" xMin="0" yMin="-98" xMax="515" yMax="895">
      <component glyphName="space" x="3" y="-8" flags="0x4"/>
      <component glyphName="component0" x="216" y="2" flags="0x4"/>
      <component glyphName="component0" x="216" y="392" flags="0x4"/>
      <component glyphName="component0" x="456" y="-40" scalex="0.0" scale01="1.0" scale10="-0.5" scaley="0.0" flags="0x4"/>
      <component glyphName="component0" x="453" y="755" scalex="0.0" scale01="1.0" scale10="-0.5" scaley="0.0" flags="0x4"/>
      <component glyphName="component0" x="253" y="-41" scalex="0.0" scale01="1.0" scale10="-0.5" scaley="0.0" flags="0x4"/>
      <component glyphName="component0" x="257" y="755" scalex="0.0" scale01="1.0" scale10="-0.5" scaley="0.0" flags="0x4"/>
    </TTGlyph>
    <TTGlyph name="I.0" xMin="-3" yMin="-90" xMax="512" yMax="903">
      <component glyphName="space" x="0" y="0" flags="0x204"/>
    </TTGlyph>
    <TTGlyph name="I.1" xMin="0" yMin="-98" xMax="515" yMax="895">
      <component glyphName="I" x="0" y="0" flags="0x204"/>
    </TTGlyph>
    <TTGlyph name="J" xMin="0" yMin="-98" xMax="515" yMax="895">
      <component glyphName="space" x="3" y="-8" flags="0x4"/>
      <component glyphName="component0" x="11" y="-2" flags="0x4"/>
      <component glyphName="component0" x="216" y="2" flags="0x4"/>
      <component glyphName="component0" x="216" y="392" flags="0x4"/>
      <component glyphName="component0" x="253" y="-41" scalex="0.0" scale01="1.0" scale10="-0.5" scaley="0.0" flags="0x4"/>
    </TTGlyph>
    <TTGlyph name="J.0" xMin="-3" yMin="-90" xMax="512" yMax="903">
      <component glyphName="space" x="0" y="0" flags="0x204"/>
    </TTGlyph>
    <TTGlyph name="J.1" xMin="0" yMin="-98" xMax="515" yMax="895">
      <component glyphName="J" x="0" y="0" flags="0x204"/>
    </TTGlyph>
    <TTGlyph name="K" xMin="0" yMin="-98" xMax="515" yMax="895">
      <component glyphName="space" x="3" y="-8" flags="0x4"/>
      <component glyphName="component0" x="216" y="2" flags="0x4"/>
      <component glyphName="component0" x="216" y="392" flags="0x4"/>
      <component glyphName="component0" x="397" y="8" scalex="0.6857" scale01="0.4881" scale10="-0.3401" scaley="0.85333" flags="0x4"/>
      <component glyphName="component0" x="265" y="449" scalex="0.5952" scale01="-0.88226" scale10="0.3568" scaley="0.8756" flags="0x4"/>
    </TTGlyph>
    <TTGlyph name="K.0" xMin="-3" yMin="-90" xMax="512" yMax="903">
      <component glyphName="space" x="0" y="0" flags="0x204"/>
    </TTGlyph>
    <TTGlyph name="K.1" xMin="0" yMin="-98" xMax="515" yMax="895">
      <component glyphName="K" x="0" y="0" flags="0x204"/>
    </TTGlyph>
    <TTGlyph name="L" xMin="0" yMin="-98" xMax="515" yMax="895">
      <component glyphName="space" x="3" y="-8" flags="0x4"/>
      <component glyphName="component0" x="11" y="-2" flags="0x4"/>
      <component glyphName="component0" x="10" y="389" flags="0x4"/>
      <component glyphName="component0" x="456" y="-40" scalex="0.0" scale01="1.0" scale10="-0.5" scaley="0.0" flags="0x4"/>
      <component glyphName="component0" x="253" y="-41" scalex="0.0" scale01="1.0" scale10="-0.5" scaley="0.0" flags="0x4"/>
    </TTGlyph>
    <TTGlyph name="L.0" xMin="-3" yMin="-90" xMax="512" yMax="903">
      <component glyphName="space" x="0" y="0" flags="0x204"/>
    </TTGlyph>
    <TTGlyph name="L.1" xMin="0" yMin="-98" xMax="515" yMax="895">
      <component glyphName="L" x="0" y="0" flags="0x204"/>
    </TTGlyph>
    <TTGlyph name="M" xMin="0" yMin="-98" xMax="515" yMax="895">
      <component glyphName="space" x="3" y="-8" flags="0x4"/>
      <component glyphName="component0" x="11" y="-2" flags="0x4"/>
      <component glyphName="component0" x="10" y="389" flags="0x4"/>
      <component glyphName="component0" x="420" y="-5" flags="0x4"/>
      <component glyphName="component0" x="419" y="396" flags="0x4"/>
      <component glyphName="component0" x="232" y="426" scalex="0.71594" scale01="-0.9497" scale10="0.42914" scaley="0.9425" flags="0x4"/>
      <component glyphName="component0" x="219" y="369" scalex="0.83826" scale01="0.54517" scale10="-0.4158" scaley="0.9532" flags="0x4"/>
    </TTGlyph>
    <TTGlyph name="M.0" xMin="-3" yMin="-90" xMax="512" yMax="903">
      <component glyphName="space" x="0" y="0" flags="0x204"/>
    </TTGlyph>
    <TTGlyph name="M.1" xMin="0" yMin="-98" xMax="515" yMax="895">
      <component glyphName="M" x="0" y="0" flags="0x204"/>
    </TTGlyph>
    <TTGlyph name="N" xMin="0" yMin="-98" xMax="515" yMax="895">
      <component glyphName="space" x="3" y="-8" flags="0x4"/>
      <component glyphName="component0" x="11" y="-2" flags="0x4"/>
      <component glyphName="component0" x="10" y="389" flags="0x4"/>
      <component glyphName="component0" x="420" y="-5" flags="0x4"/>
      <component glyphName="component0" x="419" y="396" flags="0x4"/>
      <component glyphName="component0" x="389" y="6" scalex="0.8674" scale01="0.52344" scale10="-0.4302" scaley="0.91516" flags="0x4"/>
      <component glyphName="component0" x="221" y="359" scalex="0.8533" scale01="0.5588" scale10="-0.4232" scaley="0.977" flags="0x4"/>
    </TTGlyph>
    <TTGlyph name="N.0" xMin="-3" yMin="-90" xMax="512" yMax="903">
      <component glyphName="space" x="0" y="0" flags="0x204"/>
    </TTGlyph>
    <TTGlyph name="N.1" xMin="0" yMin="-98" xMax="515" yMax="895">
      <component glyphName="N" x="0" y="0" flags="0x204"/>
    </TTGlyph>
    <TTGlyph name="O" xMin="0" yMin="-98" xMax="515" yMax="895">
      <component glyphName="space" x="3" y="-8" flags="0x4"/>
      <component glyphName="component0" x="11" y="-2" flags="0x4"/>
      <component glyphName="component0" x="10" y="389" flags="0x4"/>
      <component glyphName="component0" x="420" y="-5" flags="0x4"/>
      <component glyphName="component0" x="419" y="396" flags="0x4"/>
      <component glyphName="component0" x="456" y="-40" scalex="0.0" scale01="1.0" scale10="-0.5" scaley="0.0" flags="0x4"/>
      <component glyphName="component0" x="453" y="755" scalex="0.0" scale01="1.0" scale10="-0.5" scaley="0.0" flags="0x4"/>
      <component glyphName="component0" x="253" y="-41" scalex="0.0" scale01="1.0" scale10="-0.5" scaley="0.0" flags="0x4"/>
      <component glyphName="component0" x="257" y="755" scalex="0.0" scale01="1.0" scale10="-0.5" scaley="0.0" flags="0x4"/>
    </TTGlyph>
    <TTGlyph name="O.0" xMin="-3" yMin="-90" xMax="512" yMax="903">
      <component glyphName="space" x="0" y="0" flags="0x204"/>
    </TTGlyph>
    <TTGlyph name="O.1" xMin="0" yMin="-98" xMax="515" yMax="895">
      <component glyphName="O" x="0" y="0" flags="0x204"/>
    </TTGlyph>
    <TTGlyph name="P" xMin="0" yMin="-98" xMax="515" yMax="895">
      <component glyphName="space" x="3" y="-8" flags="0x4"/>
      <component glyphName="component0" x="11" y="-2" flags="0x4"/>
      <component glyphName="component0" x="10" y="389" flags="0x4"/>
      <component glyphName="component0" x="419" y="396" flags="0x4"/>
      <component glyphName="component0" x="453" y="755" scalex="0.0" scale01="1.0" scale10="-0.5" scaley="0.0" flags="0x4"/>
      <component glyphName="component0" x="249" y="350" scalex="0.0" scale01="1.0" scale10="-0.5" scaley="0.0" flags="0x4"/>
      <component glyphName="component0" x="450" y="350" scalex="0.0" scale01="1.0" scale10="-0.45" scaley="0.0" flags="0x4"/>
      <component glyphName="component0" x="257" y="755" scalex="0.0" scale01="1.0" scale10="-0.5" scaley="0.0" flags="0x4"/>
    </TTGlyph>
    <TTGlyph name="P.0" xMin="-3" yMin="-90" xMax="512" yMax="903">
      <component glyphName="space" x="0" y="0" flags="0x204"/>
    </TTGlyph>
    <TTGlyph name="P.1" xMin="0" yMin="-98" xMax="515" yMax="895">
      <component glyphName="P" x="0" y="0" flags="0x204"/>
    </TTGlyph>
    <TTGlyph name="Q" xMin="0" yMin="-98" xMax="515" yMax="895">
      <component glyphName="space" x="3" y="-8" flags="0x4"/>
      <component glyphName="component0" x="11" y="-2" flags="0x4"/>
      <component glyphName="component0" x="10" y="389" flags="0x4"/>
      <component glyphName="component0" x="420" y="-5" flags="0x4"/>
      <component glyphName="component0" x="419" y="396" flags="0x4"/>
      <component glyphName="component0" x="456" y="-40" scalex="0.0" scale01="1.0" scale10="-0.5" scaley="0.0" flags="0x4"/>
      <component glyphName="component0" x="453" y="755" scalex="0.0" scale01="1.0" scale10="-0.5" scaley="0.0" flags="0x4"/>
      <component glyphName="component0" x="397" y="8" scalex="0.6857" scale01="0.4881" scale10="-0.3401" scaley="0.85333" flags="0x4"/>
      <component glyphName="component0" x="253" y="-41" scalex="0.0" scale01="1.0" scale10="-0.5" scaley="0.0" flags="0x4"/>
      <component glyphName="component0" x="257" y="755" scalex="0.0" scale01="1.0" scale10="-0.5" scaley="0.0" flags="0x4"/>
    </TTGlyph>
    <TTGlyph name="Q.0" xMin="-3" yMin="-90" xMax="512" yMax="903">
      <component glyphName="space" x="0" y="0" flags="0x204"/>
    </TTGlyph>
    <TTGlyph name="Q.1" xMin="0" yMin="-98" xMax="515" yMax="895">
      <component glyphName="Q" x="0" y="0" flags="0x204"/>
    </TTGlyph>
    <TTGlyph name="R" xMin="0" yMin="-98" xMax="515" yMax="895">
      <component glyphName="space" x="3" y="-8" flags="0x4"/>
      <component glyphName="component0" x="11" y="-2" flags="0x4"/>
      <component glyphName="component0" x="10" y="389" flags="0x4"/>
      <component glyphName="component0" x="419" y="396" flags="0x4"/>
      <component glyphName="component0" x="453" y="755" scalex="0.0" scale01="1.0" scale10="-0.5" scaley="0.0" flags="0x4"/>
      <component glyphName="component0" x="249" y="350" scalex="0.0" scale01="1.0" scale10="-0.5" scaley="0.0" flags="0x4"/>
      <component glyphName="component0" x="450" y="350" scalex="0.0" scale01="1.0" scale10="-0.45" scaley="0.0" flags="0x4"/>
      <component glyphName="component0" x="417" y="-24" scalex="1.0305" scale01="0.57336" scale10="-0.5111" scaley="1.0024" flags="0x4"/>
      <component glyphName="component0" x="257" y="755" scalex="0.0" scale01="1.0" scale10="-0.5" scaley="0.0" flags="0x4"/>
    </TTGlyph>
    <TTGlyph name="R.0" xMin="-3" yMin="-90" xMax="512" yMax="903">
      <component glyphName="space" x="0" y="0" flags="0x204"/>
    </TTGlyph>
    <TTGlyph name="R.1" xMin="0" yMin="-98" xMax="515" yMax="895">
      <component glyphName="R" x="0" y="0" flags="0x204"/>
    </TTGlyph>
    <TTGlyph name="S" xMin="0" yMin="-98" xMax="515" yMax="895">
      <component glyphName="space" x="3" y="-8" flags="0x4"/>
      <component glyphName="component0" x="456" y="-40" scalex="0.0" scale01="1.0" scale10="-0.5" scaley="0.0" flags="0x4"/>
      <component glyphName="component0" x="453" y="755" scalex="0.0" scale01="1.0" scale10="-0.5" scaley="0.0" flags="0x4"/>
      <component glyphName="component0" x="389" y="6" scalex="0.8717" scale01="0.5305" scale10="-0.4324" scaley="0.92755" flags="0x4"/>
      <component glyphName="component0" x="253" y="-41" scalex="0.0" scale01="1.0" scale10="-0.5" scaley="0.0" flags="0x4"/>
      <component glyphName="component0" x="257" y="755" scalex="0.0" scale01="1.0" scale10="-0.5" scaley="0.0" flags="0x4"/>
      <component glyphName="component0" x="220" y="366" scalex="0.84863" scale01="0.5501" scale10="-0.4209" scaley="0.9618" flags="0x4"/>
    </TTGlyph>
    <TTGlyph name="S.0" xMin="-3" yMin="-90" xMax="512" yMax="903">
      <component glyphName="space" x="0" y="0" flags="0x204"/>
    </TTGlyph>
    <TTGlyph name="S.1" xMin="0" yMin="-98" xMax="515" yMax="895">
      <component glyphName="S" x="0" y="0" flags="0x204"/>
    </TTGlyph>
    <TTGlyph name="T" xMin="0" yMin="-98" xMax="515" yMax="895">
      <component glyphName="space" x="3" y="-8" flags="0x4"/>
      <component glyphName="component0" x="216" y="2" flags="0x4"/>
      <component glyphName="component0" x="216" y="392" flags="0x4"/>
      <component glyphName="component0" x="453" y="755" scalex="0.0" scale01="1.0" scale10="-0.5" scaley="0.0" flags="0x4"/>
      <component glyphName="component0" x="257" y="755" scalex="0.0" scale01="1.0" scale10="-0.5" scaley="0.0" flags="0x4"/>
    </TTGlyph>
    <TTGlyph name="T.0" xMin="-3" yMin="-90" xMax="512" yMax="903">
      <component glyphName="space" x="0" y="0" flags="0x204"/>
    </TTGlyph>
    <TTGlyph name="T.1" xMin="0" yMin="-98" xMax="515" yMax="895">
      <component glyphName="T" x="0" y="0" flags="0x204"/>
    </TTGlyph>
    <TTGlyph name="U" xMin="0" yMin="-98" xMax="515" yMax="895">
      <component glyphName="space" x="3" y="-8" flags="0x4"/>
      <component glyphName="component0" x="11" y="-2" flags="0x4"/>
      <component glyphName="component0" x="10" y="389" flags="0x4"/>
      <component glyphName="component0" x="420" y="-5" flags="0x4"/>
      <component glyphName="component0" x="419" y="396" flags="0x4"/>
      <component glyphName="component0" x="456" y="-40" scalex="0.0" scale01="1.0" scale10="-0.5" scaley="0.0" flags="0x4"/>
      <component glyphName="component0" x="253" y="-41" scalex="0.0" scale01="1.0" scale10="-0.5" scaley="0.0" flags="0x4"/>
    </TTGlyph>
    <TTGlyph name="U.0" xMin="-3" yMin="-90" xMax="512" yMax="903">
      <component glyphName="space" x="0" y="0" flags="0x204"/>
    </TTGlyph>
    <TTGlyph name="U.1" xMin="0" yMin="-98" xMax="515" yMax="895">
      <component glyphName="U" x="0" y="0" flags="0x204"/>
    </TTGlyph>
    <TTGlyph name="V" xMin="0" yMin="-98" xMax="515" yMax="895">
      <component glyphName="space" x="3" y="-8" flags="0x4"/>
      <component glyphName="component0" x="420" y="-5" flags="0x4"/>
      <component glyphName="component0" x="419" y="396" flags="0x4"/>
      <component glyphName="component0" x="386" y="-25" scalex="0.86884" scale01="0.54865" scale10="-0.4309" scaley="0.9593" flags="0x4"/>
      <component glyphName="component0" x="211" y="362" scalex="0.94055" scale01="0.5484" scale10="-0.4665" scaley="0.95874" flags="0x4"/>
    </TTGlyph>
    <TTGlyph name="V.0" xMin="-3" yMin="-90" xMax="512" yMax="903">
      <component glyphName="space" x="0" y="0" flags="0x204"/>
    </TTGlyph>
    <TTGlyph name="V.1" xMin="0" yMin="-98" xMax="515" yMax="895">
      <component glyphName="V" x="0" y="0" flags="0x204"/>
    </TTGlyph>
    <TTGlyph name="W" xMin="0" yMin="-98" xMax="515" yMax="895">
      <component glyphName="space" x="3" y="-8" flags="0x4"/>
      <component glyphName="component0" x="11" y="-2" flags="0x4"/>
      <component glyphName="component0" x="10" y="389" flags="0x4"/>
      <component glyphName="component0" x="420" y="-5" flags="0x4"/>
      <component glyphName="component0" x="419" y="396" flags="0x4"/>
      <component glyphName="component0" x="390" y="-21" scalex="0.7922" scale01="0.5583" scale10="-0.3929" scaley="0.9761" flags="0x4"/>
      <component glyphName="component0" x="62" y="37" scalex="0.9728" scale01="-0.81024" scale10="0.3898" scaley="0.9627" flags="0x4"/>
    </TTGlyph>
    <TTGlyph name="W.0" xMin="-3" yMin="-90" xMax="512" yMax="903">
      <component glyphName="space" x="0" y="0" flags="0x204"/>
    </TTGlyph>
    <TTGlyph name="W.1" xMin="0" yMin="-98" xMax="515" yMax="895">
      <component glyphName="W" x="0" y="0" flags="0x204"/>
    </TTGlyph>
    <TTGlyph name="X" xMin="0" yMin="-98" xMax="515" yMax="895">
      <component glyphName="space" x="3" y="-8" flags="0x4"/>
      <component glyphName="component0" x="394" y="5" scalex="0.7557" scale01="0.54376" scale10="-0.4035" scaley="0.91187" flags="0x4"/>
      <component glyphName="component0" x="237" y="430" scalex="0.6957" scale01="-0.93665" scale10="0.417" scaley="0.92957" flags="0x4"/>
      <component glyphName="component0" x="84" y="51" scalex="0.8558" scale01="-0.7839" scale10="0.3429" scaley="0.9314" flags="0x4"/>
      <component glyphName="component0" x="215" y="371" scalex="0.817" scale01="0.5427" scale10="-0.4052" scaley="0.9489" flags="0x4"/>
    </TTGlyph>
    <TTGlyph name="X.0" xMin="-3" yMin="-90" xMax="512" yMax="903">
      <component glyphName="space" x="0" y="0" flags="0x204"/>
    </TTGlyph>
    <TTGlyph name="X.1" xMin="0" yMin="-98" xMax="515" yMax="895">
      <component glyphName="X" x="0" y="0" flags="0x204"/>
    </TTGlyph>
    <TTGlyph name="Y" xMin="0" yMin="-98" xMax="515" yMax="895">
      <component glyphName="space" x="3" y="-8" flags="0x4"/>
      <component glyphName="component0" x="216" y="2" flags="0x4"/>
      <component glyphName="component0" x="226" y="430" scalex="0.7999" scale01="-0.9436" scale10="0.4795" scaley="0.93646" flags="0x4"/>
      <component glyphName="component0" x="210" y="375" scalex="0.9665" scale01="0.53455" scale10="-0.4794" scaley="0.93463" flags="0x4"/>
    </TTGlyph>
    <TTGlyph name="Y.0" xMin="-3" yMin="-90" xMax="512" yMax="903">
      <component glyphName="space" x="0" y="0" flags="0x204"/>
    </TTGlyph>
    <TTGlyph name="Y.1" xMin="0" yMin="-98" xMax="515" yMax="895">
      <component glyphName="Y" x="0" y="0" flags="0x204"/>
    </TTGlyph>
    <TTGlyph name="Z" xMin="0" yMin="-98" xMax="515" yMax="895">
      <component glyphName="space" x="3" y="-8" flags="0x4"/>
      <component glyphName="component0" x="456" y="-40" scalex="0.0" scale01="1.0" scale10="-0.5" scaley="0.0" flags="0x4"/>
      <component glyphName="component0" x="453" y="755" scalex="0.0" scale01="1.0" scale10="-0.5" scaley="0.0" flags="0x4"/>
      <component glyphName="component0" x="253" y="-41" scalex="0.0" scale01="1.0" scale10="-0.5" scaley="0.0" flags="0x4"/>
      <component glyphName="component0" x="257" y="755" scalex="0.0" scale01="1.0" scale10="-0.5" scaley="0.0" flags="0x4"/>
      <component glyphName="component0" x="223" y="430" scalex="0.8608" scale01="-0.98804" scale10="0.5159" scaley="0.9806" flags="0x4"/>
      <component glyphName="component0" x="18" y="52" scalex="1.18555" scale01="-0.78534" scale10="0.47504" scaley="0.93304" flags="0x4"/>
    </TTGlyph>
    <TTGlyph name="Z.0" xMin="-3" yMin="-90" xMax="512" yMax="903">
      <component glyphName="space" x="0" y="0" flags="0x204"/>
    </TTGlyph>
    <TTGlyph name="Z.1" xMin="0" yMin="-98" xMax="515" yMax="895">
      <component glyphName="Z" x="0" y="0" flags="0x204"/>
    </TTGlyph>
    <TTGlyph name="asterisk" xMin="0" yMin="-108" xMax="515" yMax="885">
      <contour>
        <pt x="5" y="829" on="1"/>
        <pt x="261" y="885" on="1"/>
        <pt x="515" y="832" on="1"/>
        <pt x="515" y="-23" on="1"/>
        <pt x="259" y="-108" on="1"/>
        <pt x="0" y="-27" on="1"/>
      </contour>
      <contour>
        <pt x="225" y="366" on="1"/>
        <pt x="225" y="196" on="1"/>
        <pt x="257" y="159" on="1"/>
        <pt x="287" y="193" on="1"/>
        <pt x="287" y="366" on="1"/>
        <pt x="256" y="392" on="1"/>
      </contour>
      <contour>
        <pt x="225" y="613" on="1"/>
        <pt x="225" y="432" on="1"/>
        <pt x="257" y="393" on="1"/>
        <pt x="287" y="429" on="1"/>
        <pt x="287" y="613" on="1"/>
        <pt x="256" y="641" on="1"/>
      </contour>
      <contour>
        <pt x="76" y="359" on="1"/>
        <pt x="219" y="359" on="1"/>
        <pt x="249" y="391" on="1"/>
        <pt x="221" y="421" on="1"/>
        <pt x="76" y="421" on="1"/>
        <pt x="55" y="390" on="1"/>
      </contour>
      <contour>
        <pt x="294" y="359" on="1"/>
        <pt x="422" y="359" on="1"/>
        <pt x="450" y="391" on="1"/>
        <pt x="424" y="421" on="1"/>
        <pt x="294" y="421" on="1"/>
        <pt x="275" y="390" on="1"/>
      </contour>
      <contour>
        <pt x="287" y="328" on="1"/>
        <pt x="402" y="187" on="1"/>
        <pt x="453" y="166" on="1"/>
        <pt x="454" y="202" on="1"/>
        <pt x="337" y="346" on="1"/>
        <pt x="295" y="358" on="1"/>
      </contour>
      <contour>
        <pt x="387" y="612" on="1"/>
        <pt x="292" y="465" on="1"/>
        <pt x="289" y="417" on="1"/>
        <pt x="325" y="431" on="1"/>
        <pt x="421" y="580" on="1"/>
        <pt x="419" y="618" on="1"/>
      </contour>
      <contour>
        <pt x="178" y="343" on="1"/>
        <pt x="89" y="200" on="1"/>
        <pt x="95" y="155" on="1"/>
        <pt x="136" y="171" on="1"/>
        <pt x="227" y="317" on="1"/>
        <pt x="216" y="351" on="1"/>
      </contour>
      <contour>
        <pt x="81" y="580" on="1"/>
        <pt x="179" y="443" on="1"/>
        <pt x="222" y="423" on="1"/>
        <pt x="223" y="458" on="1"/>
        <pt x="124" y="597" on="1"/>
        <pt x="88" y="609" on="1"/>
      </contour>
    </TTGlyph>
    <TTGlyph name="asterisk.0" xMin="-3" yMin="-90" xMax="512" yMax="903">
      <component glyphName="space" x="0" y="0" flags="0x204"/>
    </TTGlyph>
    <TTGlyph name="asterisk.1" xMin="0" yMin="-108" xMax="515" yMax="885">
      <component glyphName="asterisk" x="0" y="0" flags="0x204"/>
    </TTGlyph>
    <TTGlyph name="at" xMin="0" yMin="-108" xMax="515" yMax="885">
      <component glyphName="space" x="3" y="-18" flags="0x4"/>
      <component glyphName="component0" x="11" y="-2" flags="0x4"/>
      <component glyphName="component0" x="10" y="379" flags="0x4"/>
      <component glyphName="component0" x="216" y="2" flags="0x4"/>
      <component glyphName="component0" x="420" y="-5" flags="0x4"/>
      <component glyphName="component0" x="419" y="386" flags="0x4"/>
      <component glyphName="component0" x="456" y="-40" scalex="0.0" scale01="1.0" scale10="-0.5" scaley="0.0" flags="0x4"/>
      <component glyphName="component0" x="453" y="745" scalex="0.0" scale01="1.0" scale10="-0.5" scaley="0.0" flags="0x4"/>
      <component glyphName="component0" x="450" y="350" scalex="0.0" scale01="1.0" scale10="-0.45" scaley="0.0" flags="0x4"/>
      <component glyphName="component0" x="257" y="745" scalex="0.0" scale01="1.0" scale10="-0.5" scaley="0.0" flags="0x4"/>
    </TTGlyph>
    <TTGlyph name="at.0" xMin="0" yMin="-108" xMax="515" yMax="885">
      <component glyphName="at" x="0" y="0" flags="0x204"/>
    </TTGlyph>
    <TTGlyph name="at.1" xMin="0" yMin="-108" xMax="515" yMax="885">
      <component glyphName="at" x="0" y="0" flags="0x204"/>
    </TTGlyph>
    <TTGlyph name="backslash" xMin="0" yMin="-108" xMax="515" yMax="885">
      <component glyphName="space" x="3" y="-18" flags="0x4"/>
      <component glyphName="component0" x="347" y="32" scalex="0.6857" scale01="0.4881" scale10="-0.3401" scaley="0.85333" flags="0x4"/>
      <component glyphName="component0" x="210" y="367" scalex="0.68207" scale01="0.4974" scale10="-0.33826" scaley="0.86957" flags="0x4"/>
    </TTGlyph>
    <TTGlyph name="backslash.0" xMin="-3" yMin="-90" xMax="512" yMax="903">
      <component glyphName="space" x="0" y="0" flags="0x204"/>
    </TTGlyph>
    <TTGlyph name="backslash.1" xMin="0" yMin="-108" xMax="515" yMax="885">
      <component glyphName="backslash" x="0" y="0" flags="0x204"/>
    </TTGlyph>
    <TTGlyph name="colon" xMin="0" yMin="-108" xMax="515" yMax="885">
      <component glyphName="space" x="3" y="-18" flags="0x4"/>
      <component glyphName="component0" x="216" y="102" scalex="1.0" scaley="0.251" flags="0x4"/>
      <component glyphName="component0" x="223" y="464" scalex="1.0" scaley="0.251" flags="0x4"/>
    </TTGlyph>
    <TTGlyph name="colon.0" xMin="-3" yMin="-90" xMax="512" yMax="903">
      <component glyphName="space" x="0" y="0" flags="0x204"/>
    </TTGlyph>
    <TTGlyph name="colon.1" xMin="0" yMin="-108" xMax="515" yMax="885">
      <component glyphName="colon" x="0" y="0" flags="0x204"/>
    </TTGlyph>
    <TTGlyph name="comma" xMin="0" yMin="-108" xMax="515" yMax="885">
      <component glyphName="space" x="3" y="-18" flags="0x4"/>
      <component glyphName="component0" x="185" y="-21" scalex="0.85394" scale01="-0.5204" scale10="0.19476" scaley="0.3192" flags="0x4"/>
    </TTGlyph>
    <TTGlyph name="comma.0" xMin="-3" yMin="-90" xMax="512" yMax="903">
      <component glyphName="space" x="0" y="0" flags="0x204"/>
    </TTGlyph>
    <TTGlyph name="comma.1" xMin="0" yMin="-108" xMax="515" yMax="885">
      <component glyphName="comma" x="0" y="0" flags="0x204"/>
    </TTGlyph>
    <TTGlyph name="component0" xMin="9" yMin="0" xMax="71" yMax="389">
      <contour>
        <pt x="9" y="346" on="1"/>
        <pt x="9" y="61" on="1"/>
        <pt x="41" y="0" on="1"/>
        <pt x="71" y="57" on="1"/>
        <pt x="71" y="346" on="1"/>
        <pt x="40" y="389" on="1"/>
      </contour>
    </TTGlyph>
    <TTGlyph name="eight" xMin="0" yMin="-98" xMax="515" yMax="895">
      <component glyphName="space" x="3" y="-8" flags="0x4"/>
      <component glyphName="component0" x="11" y="-2" flags="0x4"/>
      <component glyphName="component0" x="10" y="389" flags="0x4"/>
      <component glyphName="component0" x="420" y="-5" flags="0x4"/>
      <component glyphName="component0" x="419" y="396" flags="0x4"/>
      <component glyphName="component0" x="456" y="-40" scalex="0.0" scale01="1.0" scale10="-0.5" scaley="0.0" flags="0x4"/>
      <component glyphName="component0" x="453" y="755" scalex="0.0" scale01="1.0" scale10="-0.5" scaley="0.0" flags="0x4"/>
      <component glyphName="component0" x="249" y="350" scalex="0.0" scale01="1.0" scale10="-0.5" scaley="0.0" flags="0x4"/>
      <component glyphName="component0" x="450" y="350" scalex="0.0" scale01="1.0" scale10="-0.45" scaley="0.0" flags="0x4"/>
      <component glyphName="component0" x="253" y="-41" scalex="0.0" scale01="1.0" scale10="-0.5" scaley="0.0" flags="0x4"/>
      <component glyphName="component0" x="257" y="755" scalex="0.0" scale01="1.0" scale10="-0.5" scaley="0.0" flags="0x4"/>
    </TTGlyph>
    <TTGlyph name="eight.0" xMin="-3" yMin="-90" xMax="512" yMax="903">
      <component glyphName="space" x="0" y="0" flags="0x204"/>
    </TTGlyph>
    <TTGlyph name="eight.1" xMin="0" yMin="-98" xMax="515" yMax="895">
      <component glyphName="eight" x="0" y="0" flags="0x204"/>
    </TTGlyph>
    <TTGlyph name="equal" xMin="-3" yMin="-90" xMax="512" yMax="903">
      <component glyphName="space" x="0" y="0" flags="0x204"/>
      <component glyphName="component0" x="445" y="473" scalex="0.0" scale01="1.0" scale10="-1.0" scaley="0.0" flags="0x4"/>
      <component glyphName="component0" x="441" y="267" scalex="0.0" scale01="1.0" scale10="-1.0" scaley="0.0" flags="0x4"/>
    </TTGlyph>
    <TTGlyph name="equal.0" xMin="-3" yMin="-90" xMax="512" yMax="903">
      <component glyphName="space" x="0" y="0" flags="0x204"/>
    </TTGlyph>
    <TTGlyph name="equal.1" xMin="-3" yMin="-90" xMax="512" yMax="903">
      <component glyphName="equal" x="0" y="0" flags="0x204"/>
    </TTGlyph>
    <TTGlyph name="exclam" xMin="0" yMin="-108" xMax="515" yMax="885">
      <contour>
        <pt x="5" y="829" on="1"/>
        <pt x="261" y="885" on="1"/>
        <pt x="515" y="832" on="1"/>
        <pt x="515" y="-23" on="1"/>
        <pt x="259" y="-108" on="1"/>
        <pt x="0" y="-27" on="1"/>
      </contour>
      <contour>
        <pt x="225" y="-17" on="1"/>
        <pt x="225" y="-86" on="1"/>
        <pt x="257" y="-100" on="1"/>
        <pt x="287" y="-87" on="1"/>
        <pt x="287" y="-17" on="1"/>
        <pt x="256" y="-7" on="1"/>
      </contour>
      <contour>
        <pt x="225" y="695" on="1"/>
        <pt x="225" y="123" on="1"/>
        <pt x="257" y="1" on="1"/>
        <pt x="287" y="115" on="1"/>
        <pt x="287" y="695" on="1"/>
        <pt x="256" y="781" on="1"/>
      </contour>
    </TTGlyph>
    <TTGlyph name="exclam.0" xMin="-3" yMin="-90" xMax="512" yMax="903">
      <component glyphName="space" x="0" y="0" flags="0x204"/>
    </TTGlyph>
    <TTGlyph name="exclam.1" xMin="0" yMin="-108" xMax="515" yMax="885">
      <component glyphName="exclam" x="0" y="0" flags="0x204"/>
    </TTGlyph>
    <TTGlyph name="five" xMin="0" yMin="-98" xMax="515" yMax="895">
      <component glyphName="space" x="3" y="-8" flags="0x4"/>
      <component glyphName="component0" x="10" y="389" flags="0x4"/>
      <component glyphName="component0" x="420" y="-5" flags="0x4"/>
      <component glyphName="component0" x="456" y="-40" scalex="0.0" scale01="1.0" scale10="-0.5" scaley="0.0" flags="0x4"/>
      <component glyphName="component0" x="453" y="755" scalex="0.0" scale01="1.0" scale10="-0.5" scaley="0.0" flags="0x4"/>
      <component glyphName="component0" x="249" y="350" scalex="0.0" scale01="1.0" scale10="-0.5" scaley="0.0" flags="0x4"/>
      <component glyphName="component0" x="450" y="350" scalex="0.0" scale01="1.0" scale10="-0.45" scaley="0.0" flags="0x4"/>
      <component glyphName="component0" x="253" y="-41" scalex="0.0" scale01="1.0" scale10="-0.5" scaley="0.0" flags="0x4"/>
      <component glyphName="component0" x="257" y="755" scalex="0.0" scale01="1.0" scale10="-0.5" scaley="0.0" flags="0x4"/>
    </TTGlyph>
    <TTGlyph name="five.0" xMin="-3" yMin="-90" xMax="512" yMax="903">
      <component glyphName="space" x="0" y="0" flags="0x204"/>
    </TTGlyph>
    <TTGlyph name="five.1" xMin="0" yMin="-98" xMax="515" yMax="895">
      <component glyphName="five" x="0" y="0" flags="0x204"/>
    </TTGlyph>
    <TTGlyph name="four" xMin="0" yMin="-98" xMax="515" yMax="895">
      <component glyphName="space" x="3" y="-8" flags="0x4"/>
      <component glyphName="component0" x="10" y="389" flags="0x4"/>
      <component glyphName="component0" x="420" y="-5" flags="0x4"/>
      <component glyphName="component0" x="419" y="396" flags="0x4"/>
      <component glyphName="component0" x="249" y="350" scalex="0.0" scale01="1.0" scale10="-0.5" scaley="0.0" flags="0x4"/>
      <component glyphName="component0" x="450" y="350" scalex="0.0" scale01="1.0" scale10="-0.45" scaley="0.0" flags="0x4"/>
    </TTGlyph>
    <TTGlyph name="four.0" xMin="-3" yMin="-90" xMax="512" yMax="903">
      <component glyphName="space" x="0" y="0" flags="0x204"/>
    </TTGlyph>
    <TTGlyph name="four.1" xMin="0" yMin="-98" xMax="515" yMax="895">
      <component glyphName="four" x="0" y="0" flags="0x204"/>
    </TTGlyph>
    <TTGlyph name="greater" xMin="-3" yMin="-90" xMax="512" yMax="903">
      <component glyphName="component0" x="84" y="51" scalex="0.8735" scale01="-0.7887" scale10="0.35" scaley="0.9371" flags="0x4"/>
      <component glyphName="component0" x="218" y="367" scalex="0.83435" scale01="0.54846" scale10="-0.4138" scaley="0.9589" flags="0x4"/>
      <component glyphName="space" x="0" y="0" flags="0x204"/>
    </TTGlyph>
    <TTGlyph name="greater.0" xMin="-3" yMin="-90" xMax="512" yMax="903">
      <component glyphName="space" x="0" y="0" flags="0x204"/>
    </TTGlyph>
    <TTGlyph name="greater.1" xMin="-3" yMin="-90" xMax="512" yMax="903">
      <component glyphName="greater" x="0" y="0" flags="0x204"/>
    </TTGlyph>
    <TTGlyph name="hyphen" xMin="-3" yMin="-90" xMax="512" yMax="903">
      <component glyphName="space" x="0" y="0" flags="0x204"/>
      <component glyphName="component0" x="445" y="358" scalex="0.0" scale01="1.0" scale10="-1.0" scaley="0.0" flags="0x4"/>
    </TTGlyph>
    <TTGlyph name="hyphen.0" xMin="-3" yMin="-90" xMax="512" yMax="903">
      <component glyphName="space" x="0" y="0" flags="0x204"/>
    </TTGlyph>
    <TTGlyph name="hyphen.1" xMin="-3" yMin="-90" xMax="512" yMax="903">
      <component glyphName="hyphen" x="0" y="0" flags="0x204"/>
    </TTGlyph>
    <TTGlyph name="less" xMin="-3" yMin="-90" xMax="512" yMax="903">
      <component glyphName="component0" x="415" y="-20" scalex="0.9848" scale01="0.5653" scale10="-0.48846" scaley="0.9884" flags="0x4"/>
      <component glyphName="component0" x="229" y="427" scalex="0.72687" scale01="-0.9453" scale10="0.43567" scaley="0.9382" flags="0x4"/>
      <component glyphName="space" x="0" y="0" flags="0x204"/>
    </TTGlyph>
    <TTGlyph name="less.0" xMin="-3" yMin="-90" xMax="512" yMax="903">
      <component glyphName="space" x="0" y="0" flags="0x204"/>
    </TTGlyph>
    <TTGlyph name="less.1" xMin="-3" yMin="-90" xMax="512" yMax="903">
      <component glyphName="less" x="0" y="0" flags="0x204"/>
    </TTGlyph>
    <TTGlyph name="nine" xMin="0" yMin="-108" xMax="515" yMax="885">
      <component glyphName="space" x="3" y="-18" flags="0x4"/>
      <component glyphName="component0" x="10" y="379" flags="0x4"/>
      <component glyphName="component0" x="420" y="-5" flags="0x4"/>
      <component glyphName="component0" x="419" y="386" flags="0x4"/>
      <component glyphName="component0" x="456" y="-40" scalex="0.0" scale01="1.0" scale10="-0.5" scaley="0.0" flags="0x4"/>
      <component glyphName="component0" x="453" y="745" scalex="0.0" scale01="1.0" scale10="-0.5" scaley="0.0" flags="0x4"/>
      <component glyphName="component0" x="249" y="350" scalex="0.0" scale01="1.0" scale10="-0.5" scaley="0.0" flags="0x4"/>
      <component glyphName="component0" x="450" y="350" scalex="0.0" scale01="1.0" scale10="-0.45" scaley="0.0" flags="0x4"/>
      <component glyphName="component0" x="253" y="-41" scalex="0.0" scale01="1.0" scale10="-0.5" scaley="0.0" flags="0x4"/>
      <component glyphName="component0" x="257" y="745" scalex="0.0" scale01="1.0" scale10="-0.5" scaley="0.0" flags="0x4"/>
    </TTGlyph>
    <TTGlyph name="nine.0" xMin="-3" yMin="-90" xMax="512" yMax="903">
      <component glyphName="space" x="0" y="0" flags="0x204"/>
    </TTGlyph>
    <TTGlyph name="nine.1" xMin="0" yMin="-108" xMax="515" yMax="885">
      <component glyphName="nine" x="0" y="0" flags="0x204"/>
    </TTGlyph>
    <TTGlyph name="one" xMin="0" yMin="-98" xMax="515" yMax="895">
      <component glyphName="space" x="3" y="-8" flags="0x4"/>
      <component glyphName="component0" x="216" y="2" flags="0x4"/>
      <component glyphName="component0" x="216" y="392" flags="0x4"/>
    </TTGlyph>
    <TTGlyph name="one.0" xMin="-3" yMin="-90" xMax="512" yMax="903">
      <component glyphName="space" x="0" y="0" flags="0x204"/>
    </TTGlyph>
    <TTGlyph name="one.1" xMin="0" yMin="-98" xMax="515" yMax="895">
      <component glyphName="one" x="0" y="0" flags="0x204"/>
    </TTGlyph>
    <TTGlyph name="percent" xMin="0" yMin="-108" xMax="515" yMax="885">
      <component glyphName="space" x="3" y="-18" flags="0x4"/>
      <component glyphName="component0" x="10" y="379" flags="0x4"/>
      <component glyphName="component0" x="216" y="2" flags="0x4"/>
      <component glyphName="component0" x="216" y="392" flags="0x4"/>
      <component glyphName="component0" x="420" y="-5" flags="0x4"/>
      <component glyphName="component0" x="456" y="-40" scalex="0.0" scale01="1.0" scale10="-0.5" scaley="0.0" flags="0x4"/>
      <component glyphName="component0" x="249" y="350" scalex="0.0" scale01="1.0" scale10="-0.5" scaley="0.0" flags="0x4"/>
      <component glyphName="component0" x="450" y="350" scalex="0.0" scale01="1.0" scale10="-0.45" scaley="0.0" flags="0x4"/>
      <component glyphName="component0" x="257" y="745" scalex="0.0" scale01="1.0" scale10="-0.5" scaley="0.0" flags="0x4"/>
      <component glyphName="component0" x="265" y="449" scalex="0.5952" scale01="-0.88226" scale10="0.3568" scaley="0.8756" flags="0x4"/>
      <component glyphName="component0" x="90" y="48" scalex="0.64343" scale01="-0.70905" scale10="0.2578" scaley="0.84247" flags="0x4"/>
    </TTGlyph>
    <TTGlyph name="percent.0" xMin="-3" yMin="-90" xMax="512" yMax="903">
      <component glyphName="space" x="0" y="0" flags="0x204"/>
    </TTGlyph>
    <TTGlyph name="percent.1" xMin="0" yMin="-108" xMax="515" yMax="885">
      <component glyphName="percent" x="0" y="0" flags="0x204"/>
    </TTGlyph>
    <TTGlyph name="period" xMin="0" yMin="-108" xMax="515" yMax="885">
      <component glyphName="space" x="3" y="-18" flags="0x4"/>
      <component glyphName="component0" x="214" y="-55" scalex="1.0" scale01="-0.00006" scale10="0.00024" scaley="0.26215" flags="0x4"/>
    </TTGlyph>
    <TTGlyph name="period.0" xMin="-3" yMin="-90" xMax="512" yMax="903">
      <component glyphName="space" x="0" y="0" flags="0x204"/>
    </TTGlyph>
    <TTGlyph name="period.1" xMin="0" yMin="-108" xMax="515" yMax="885">
      <component glyphName="period" x="0" y="0" flags="0x204"/>
    </TTGlyph>
    <TTGlyph name="plus" xMin="0" yMin="-108" xMax="515" yMax="885">
      <component glyphName="space" x="3" y="-18" flags="0x4"/>
      <component glyphName="component0" x="218" y="183" scalex="1.0" scaley="0.5" flags="0x4"/>
      <component glyphName="component0" x="216" y="403" scalex="1.0" scaley="0.5" flags="0x4"/>
      <component glyphName="component0" x="249" y="350" scalex="0.0" scale01="1.0" scale10="-0.5" scaley="0.0" flags="0x4"/>
      <component glyphName="component0" x="450" y="350" scalex="0.0" scale01="1.0" scale10="-0.45" scaley="0.0" flags="0x4"/>
    </TTGlyph>
    <TTGlyph name="plus.0" xMin="-3" yMin="-90" xMax="512" yMax="903">
      <component glyphName="space" x="0" y="0" flags="0x204"/>
    </TTGlyph>
    <TTGlyph name="plus.1" xMin="0" yMin="-108" xMax="515" yMax="885">
      <component glyphName="plus" x="0" y="0" flags="0x204"/>
    </TTGlyph>
    <TTGlyph name="question" xMin="0" yMin="-108" xMax="515" yMax="885">
      <component glyphName="space" x="3" y="-18" flags="0x4"/>
      <component glyphName="component0" x="216" y="2" flags="0x4"/>
      <component glyphName="component0" x="419" y="386" flags="0x4"/>
      <component glyphName="component0" x="291" y="-97" scalex="0.0" scale01="1.0" scale10="-0.13104" scaley="0.0" flags="0x4"/>
      <component glyphName="component0" x="453" y="745" scalex="0.0" scale01="1.0" scale10="-0.8019" scaley="0.0" flags="0x4"/>
      <component glyphName="component0" x="450" y="350" scalex="0.0" scale01="1.0" scale10="-0.45" scaley="0.0" flags="0x4"/>
    </TTGlyph>
    <TTGlyph name="question.0" xMin="-3" yMin="-90" xMax="512" yMax="903">
      <component glyphName="space" x="0" y="0" flags="0x204"/>
    </TTGlyph>
    <TTGlyph name="question.1" xMin="0" yMin="-108" xMax="515" yMax="885">
      <component glyphName="question" x="0" y="0" flags="0x204"/>
    </TTGlyph>
    <TTGlyph name="quotedbl" xMin="0" yMin="-108" xMax="515" yMax="885">
      <component glyphName="space" x="3" y="-18" flags="0x4"/>
      <component glyphName="component0" x="123" y="480" scalex="1.0" scaley="0.5" flags="0x4"/>
      <component glyphName="component0" x="329" y="486" scalex="1.0" scaley="0.5" flags="0x4"/>
    </TTGlyph>
    <TTGlyph name="quotedbl.0" xMin="-3" yMin="-90" xMax="512" yMax="903">
      <component glyphName="space" x="0" y="0" flags="0x204"/>
    </TTGlyph>
    <TTGlyph name="quotedbl.1" xMin="0" yMin="-108" xMax="515" yMax="885">
      <component glyphName="quotedbl" x="0" y="0" flags="0x204"/>
    </TTGlyph>
    <TTGlyph name="quotesingle" xMin="0" yMin="-108" xMax="515" yMax="885">
      <component glyphName="space" x="3" y="-18" flags="0x4"/>
      <component glyphName="component0" x="216" y="489" scalex="1.0" scaley="0.5" flags="0x4"/>
    </TTGlyph>
    <TTGlyph name="quotesingle.0" xMin="-3" yMin="-90" xMax="512" yMax="903">
      <component glyphName="space" x="0" y="0" flags="0x204"/>
    </TTGlyph>
    <TTGlyph name="quotesingle.1" xMin="0" yMin="-108" xMax="515" yMax="885">
      <component glyphName="quotesingle" x="0" y="0" flags="0x204"/>
    </TTGlyph>
    <TTGlyph name="semicolon" xMin="0" yMin="-108" xMax="515" yMax="885">
      <component glyphName="space" x="3" y="-18" flags="0x4"/>
      <component glyphName="component0" x="185" y="-21" scalex="0.85394" scale01="-0.5204" scale10="0.19476" scaley="0.3192" flags="0x4"/>
      <component glyphName="component0" x="218" y="358" scalex="1.0" scale01="-0.00006" scale10="0.00024" scaley="0.26215" flags="0x4"/>
    </TTGlyph>
    <TTGlyph name="semicolon.0" xMin="-3" yMin="-90" xMax="512" yMax="903">
      <component glyphName="space" x="0" y="0" flags="0x204"/>
    </TTGlyph>
    <TTGlyph name="semicolon.1" xMin="0" yMin="-108" xMax="515" yMax="885">
      <component glyphName="semicolon" x="0" y="0" flags="0x204"/>
    </TTGlyph>
    <TTGlyph name="seven" xMin="0" yMin="-98" xMax="515" yMax="895">
      <component glyphName="space" x="3" y="-8" flags="0x4"/>
      <component glyphName="component0" x="419" y="396" flags="0x4"/>
      <component glyphName="component0" x="453" y="755" scalex="0.0" scale01="1.0" scale10="-0.5" scaley="0.0" flags="0x4"/>
      <component glyphName="component0" x="257" y="755" scalex="0.0" scale01="1.0" scale10="-0.5" scaley="0.0" flags="0x4"/>
      <component glyphName="component0" x="420" y="-5" flags="0x4"/>
    </TTGlyph>
    <TTGlyph name="seven.0" xMin="-3" yMin="-90" xMax="512" yMax="903">
      <component glyphName="space" x="0" y="0" flags="0x204"/>
    </TTGlyph>
    <TTGlyph name="seven.1" xMin="0" yMin="-98" xMax="515" yMax="895">
      <component glyphName="seven" x="0" y="0" flags="0x204"/>
    </TTGlyph>
    <TTGlyph name="six" xMin="0" yMin="-98" xMax="515" yMax="895">
      <component glyphName="space" x="3" y="-8" flags="0x4"/>
      <component glyphName="component0" x="11" y="-2" flags="0x4"/>
      <component glyphName="component0" x="10" y="389" flags="0x4"/>
      <component glyphName="component0" x="420" y="-5" flags="0x4"/>
      <component glyphName="component0" x="456" y="-40" scalex="0.0" scale01="1.0" scale10="-0.5" scaley="0.0" flags="0x4"/>
      <component glyphName="component0" x="453" y="755" scalex="0.0" scale01="1.0" scale10="-0.5" scaley="0.0" flags="0x4"/>
      <component glyphName="component0" x="249" y="350" scalex="0.0" scale01="1.0" scale10="-0.5" scaley="0.0" flags="0x4"/>
      <component glyphName="component0" x="450" y="350" scalex="0.0" scale01="1.0" scale10="-0.45" scaley="0.0" flags="0x4"/>
      <component glyphName="component0" x="253" y="-41" scalex="0.0" scale01="1.0" scale10="-0.5" scaley="0.0" flags="0x4"/>
      <component glyphName="component0" x="257" y="755" scalex="0.0" scale01="1.0" scale10="-0.5" scaley="0.0" flags="0x4"/>
    </TTGlyph>
    <TTGlyph name="six.0" xMin="-3" yMin="-90" xMax="512" yMax="903">
      <component glyphName="space" x="0" y="0" flags="0x204"/>
    </TTGlyph>
    <TTGlyph name="six.1" xMin="0" yMin="-98" xMax="515" yMax="895">
      <component glyphName="six" x="0" y="0" flags="0x204"/>
    </TTGlyph>
    <TTGlyph name="slash" xMin="-3" yMin="-90" xMax="512" yMax="903">
      <component glyphName="component0" x="218" y="426" scalex="0.8322" scale01="-1.0064" scale10="0.49884" scaley="0.9988" flags="0x4"/>
      <component glyphName="component0" x="30" y="33" scalex="1.1217" scale01="-0.8334" scale10="0.44946" scaley="0.9901" flags="0x4"/>
      <component glyphName="space" x="0" y="0" flags="0x204"/>
    </TTGlyph>
    <TTGlyph name="slash.0" xMin="-3" yMin="-90" xMax="512" yMax="903">
      <component glyphName="space" x="0" y="0" flags="0x204"/>
    </TTGlyph>
    <TTGlyph name="slash.1" xMin="-3" yMin="-90" xMax="512" yMax="903">
      <component glyphName="slash" x="0" y="0" flags="0x204"/>
    </TTGlyph>
    <TTGlyph name="space" xMin="-3" yMin="-90" xMax="512" yMax="903">
      <contour>
        <pt x="2" y="847" on="1"/>
        <pt x="258" y="903" on="1"/>
        <pt x="512" y="850" on="1"/>
        <pt x="512" y="-5" on="1"/>
        <pt x="256" y="-90" on="1"/>
        <pt x="-3" y="-9" on="1"/>
      </contour>
    </TTGlyph>
    <TTGlyph name="three" xMin="0" yMin="-98" xMax="515" yMax="895">
      <component glyphName="space" x="3" y="-8" flags="0x4"/>
      <component glyphName="component0" x="420" y="-5" flags="0x4"/>
      <component glyphName="component0" x="419" y="396" flags="0x4"/>
      <component glyphName="component0" x="456" y="-40" scalex="0.0" scale01="1.0" scale10="-0.5" scaley="0.0" flags="0x4"/>
      <component glyphName="component0" x="453" y="755" scalex="0.0" scale01="1.0" scale10="-0.5" scaley="0.0" flags="0x4"/>
      <component glyphName="component0" x="249" y="350" scalex="0.0" scale01="1.0" scale10="-0.5" scaley="0.0" flags="0x4"/>
      <component glyphName="component0" x="450" y="350" scalex="0.0" scale01="1.0" scale10="-0.45" scaley="0.0" flags="0x4"/>
      <component glyphName="component0" x="253" y="-41" scalex="0.0" scale01="1.0" scale10="-0.5" scaley="0.0" flags="0x4"/>
      <component glyphName="component0" x="257" y="755" scalex="0.0" scale01="1.0" scale10="-0.5" scaley="0.0" flags="0x4"/>
    </TTGlyph>
    <TTGlyph name="three.0" xMin="-3" yMin="-90" xMax="512" yMax="903">
      <component glyphName="space" x="0" y="0" flags="0x204"/>
    </TTGlyph>
    <TTGlyph name="three.1" xMin="0" yMin="-98" xMax="515" yMax="895">
      <component glyphName="three" x="0" y="0" flags="0x204"/>
    </TTGlyph>
    <TTGlyph name="two" xMin="0" yMin="-98" xMax="515" yMax="895">
      <component glyphName="space" x="3" y="-8" flags="0x4"/>
      <component glyphName="component0" x="11" y="-2" flags="0x4"/>
      <component glyphName="component0" x="419" y="396" flags="0x4"/>
      <component glyphName="component0" x="456" y="-40" scalex="0.0" scale01="1.0" scale10="-0.5" scaley="0.0" flags="0x4"/>
      <component glyphName="component0" x="453" y="755" scalex="0.0" scale01="1.0" scale10="-0.5" scaley="0.0" flags="0x4"/>
      <component glyphName="component0" x="249" y="350" scalex="0.0" scale01="1.0" scale10="-0.5" scaley="0.0" flags="0x4"/>
      <component glyphName="component0" x="450" y="350" scalex="0.0" scale01="1.0" scale10="-0.45" scaley="0.0" flags="0x4"/>
      <component glyphName="component0" x="253" y="-41" scalex="0.0" scale01="1.0" scale10="-0.5" scaley="0.0" flags="0x4"/>
      <component glyphName="component0" x="257" y="755" scalex="0.0" scale01="1.0" scale10="-0.5" scaley="0.0" flags="0x4"/>
    </TTGlyph>
    <TTGlyph name="two.0" xMin="-3" yMin="-90" xMax="512" yMax="903">
      <component glyphName="space" x="0" y="0" flags="0x204"/>
    </TTGlyph>
    <TTGlyph name="two.1" xMin="0" yMin="-98" xMax="515" yMax="895">
      <component glyphName="two" x="0" y="0" flags="0x204"/>
    </TTGlyph>
    <TTGlyph name="zero" xMin="0" yMin="-98" xMax="515" yMax="895">
      <component glyphName="space" x="3" y="-8" flags="0x4"/>
      <component glyphName="component0" x="11" y="-2" flags="0x4"/>
      <component glyphName="component0" x="10" y="389" flags="0x4"/>
      <component glyphName="component0" x="420" y="-5" flags="0x4"/>
      <component glyphName="component0" x="419" y="396" flags="0x4"/>
      <component glyphName="component0" x="456" y="-40" scalex="0.0" scale01="1.0" scale10="-0.5" scaley="0.0" flags="0x4"/>
      <component glyphName="component0" x="453" y="755" scalex="0.0" scale01="1.0" scale10="-0.5" scaley="0.0" flags="0x4"/>
      <component glyphName="component0" x="253" y="-41" scalex="0.0" scale01="1.0" scale10="-0.5" scaley="0.0" flags="0x4"/>
      <component glyphName="component0" x="257" y="755" scalex="0.0" scale01="1.0" scale10="-0.5" scaley="0.0" flags="0x4"/>
    </TTGlyph>
    <TTGlyph name="zero.0" xMin="-3" yMin="-90" xMax="512" yMax="903">
      <component glyphName="space" x="0" y="0" flags="0x204"/>
    </TTGlyph>
    <TTGlyph name="zero.1" xMin="0" yMin="-98" xMax="515" yMax="895">
      <component glyphName="zero" x="0" y="0" flags="0x204"/>
    </TTGlyph>
</ttFont>
